<svg width="382" height="648" viewBox="0 0 382 648" fill="none" xmlns="http://www.w3.org/2000/svg">
<path d="M72.5 7C72.5 3.41015 69.5899 0.5 66 0.5C62.4101 0.5 59.5 3.41015 59.5 7L72.5 7ZM59.5 7C59.5 12.6632 57.0254 17.0456 52.4179 21.2186C47.5752 25.6046 40.9493 29.2458 33.3965 33.3501C26.1993 37.2611 18.0752 41.6352 11.8554 47.2684C5.40046 53.1145 0.500025 60.7551 0.500025 71.1226L13.5 71.1226C13.5 65.4594 15.9746 61.077 20.5822 56.9039C25.4248 52.518 32.0507 48.8768 39.6036 44.7725C46.8007 40.8615 54.9248 36.4873 61.1446 30.8542C67.5996 25.008 72.5 17.3675 72.5 7L59.5 7ZM0.500025 71.1226C0.500024 81.49 5.40046 89.1306 11.8554 94.9767C18.0752 100.61 26.1993 104.984 33.3965 108.895C40.9493 112.999 47.5752 116.641 52.4179 121.027C57.0254 125.2 59.5 129.582 59.5 135.245L72.5 135.245C72.5 124.878 67.5996 117.237 61.1446 111.391C54.9248 105.758 46.8007 101.384 39.6036 97.4726C32.0507 93.3683 25.4248 89.7271 20.5822 85.3412C15.9746 81.1682 13.5 76.7857 13.5 71.1226L0.500025 71.1226ZM59.5 135.245C59.5 140.908 57.0254 145.291 52.4184 149.462C47.5765 153.846 40.9509 157.485 33.3993 161.584C26.2035 165.49 18.0797 169.856 11.8604 175.477C5.40621 181.31 0.50002 188.938 0.500019 199.293L13.5 199.293C13.5 193.654 15.9688 189.287 20.5771 185.122C25.4203 180.745 32.0465 177.11 39.6007 173.01C46.7991 169.103 54.9235 164.731 61.1441 159.099C67.5996 153.253 72.5 145.613 72.5 135.245L59.5 135.245ZM0.500019 199.293C0.500019 209.66 5.40034 217.301 11.8559 223.147C18.0765 228.779 26.2009 233.151 33.3993 237.058C40.9535 241.158 47.5797 244.793 52.423 249.17C57.0313 253.335 59.5 257.702 59.5 263.34L72.5 263.34C72.5 252.986 67.5937 245.358 61.1395 239.525C54.9202 233.904 46.7965 229.538 39.6007 225.632C32.0491 221.534 25.4235 217.894 20.5816 213.51C15.9747 209.339 13.5 204.956 13.5 199.293L0.500019 199.293ZM59.5 263.34C59.5 269.003 57.0253 273.386 52.4184 277.557C47.5765 281.942 40.9509 285.581 33.3993 289.68C26.2035 293.585 18.0798 297.952 11.8605 303.572C5.40628 309.405 0.500014 317.033 0.500014 327.387L13.5 327.387C13.5 321.749 15.9687 317.382 20.577 313.217C25.4203 308.84 32.0465 305.205 39.6007 301.105C46.7991 297.198 54.9235 292.827 61.1441 287.194C67.5996 281.348 72.5 273.708 72.5 263.34L59.5 263.34ZM0.500014 327.387C0.500013 337.755 5.40039 345.395 11.8553 351.242C18.0752 356.875 26.1993 361.249 33.3965 365.16C40.9494 369.264 47.5753 372.905 52.418 377.291C57.0255 381.464 59.5 385.846 59.5 391.509L72.5 391.509C72.5 381.142 67.5994 373.501 61.1445 367.655C54.9247 362.023 46.8006 357.649 39.6035 353.738C32.0507 349.633 25.4248 345.992 20.5822 341.606C15.9746 337.433 13.5 333.051 13.5 327.387L0.500014 327.387ZM59.5 391.509C59.5 397.172 57.0254 401.555 52.4178 405.728C47.5751 410.114 40.9492 413.755 33.3964 417.86C26.1992 421.771 18.0751 426.145 11.8553 431.778C5.40039 437.624 0.500009 445.265 0.500008 455.633L13.5 455.633C13.5 449.969 15.9746 445.587 20.5822 441.414C25.4249 437.028 32.0508 433.386 39.6036 429.282C46.8008 425.371 54.9249 420.997 61.1447 415.363C67.5996 409.517 72.5 401.876 72.5 391.509L59.5 391.509ZM0.500008 455.633C0.500008 466 5.40057 473.64 11.8555 479.486C18.0753 485.119 26.1994 489.493 33.3965 493.404C40.9493 497.508 47.5751 501.149 52.4178 505.535C57.0254 509.708 59.5 514.091 59.5 519.754L72.5 519.754C72.5 509.387 67.5996 501.746 61.1447 495.9C54.9248 490.267 46.8007 485.892 39.6035 481.981C32.0506 477.877 25.4247 474.236 20.582 469.85C15.9744 465.677 13.5 461.295 13.5 455.633L0.500008 455.633ZM59.5 519.754C59.5 525.418 57.0254 529.8 52.4178 533.973C47.5751 538.359 40.9492 542.001 33.3964 546.105C26.1992 550.016 18.0751 554.39 11.8553 560.024C5.40038 565.87 0.500003 573.511 0.500003 583.878L13.5 583.878C13.5 578.215 15.9746 573.832 20.5822 569.659C25.4249 565.273 32.0508 561.632 39.6036 557.528C46.8008 553.616 54.9249 549.242 61.1447 543.609C67.5996 537.763 72.5 530.122 72.5 519.754L59.5 519.754ZM0.500003 583.878C0.500002 594.246 5.40056 601.886 11.8555 607.732C18.0753 613.365 26.1994 617.739 33.3965 621.649C40.9493 625.754 47.5751 629.395 52.4178 633.781C57.0254 637.954 59.5 642.337 59.5 648L72.5 648C72.5 637.632 67.5996 629.992 61.1447 624.145C54.9248 618.512 46.8007 614.138 39.6035 610.227C32.0506 606.123 25.4247 602.482 20.582 598.096C15.9744 593.923 13.5 589.541 13.5 583.878L0.500003 583.878Z" fill="#DAED47"/>
<path d="M381.5 7C381.5 3.41015 378.59 0.5 375 0.5C371.41 0.5 368.5 3.41015 368.5 7L381.5 7ZM368.5 7C368.5 12.6632 366.025 17.0456 361.418 21.2186C356.575 25.6046 349.949 29.2458 342.396 33.3501C335.199 37.2611 327.075 41.6352 320.855 47.2684C314.4 53.1145 309.5 60.7551 309.5 71.1226L322.5 71.1226C322.5 65.4594 324.975 61.077 329.582 56.9039C334.425 52.518 341.051 48.8768 348.604 44.7725C355.801 40.8615 363.925 36.4873 370.145 30.8542C376.6 25.008 381.5 17.3675 381.5 7L368.5 7ZM309.5 71.1226C309.5 81.49 314.4 89.1306 320.855 94.9767C327.075 100.61 335.199 104.984 342.396 108.895C349.949 112.999 356.575 116.641 361.418 121.027C366.025 125.2 368.5 129.582 368.5 135.245L381.5 135.245C381.5 124.878 376.6 117.237 370.145 111.391C363.925 105.758 355.801 101.384 348.604 97.4726C341.051 93.3683 334.425 89.7271 329.582 85.3412C324.975 81.1682 322.5 76.7857 322.5 71.1226L309.5 71.1226ZM368.5 135.245C368.5 140.908 366.025 145.291 361.418 149.462C356.577 153.846 349.951 157.485 342.399 161.584C335.204 165.49 327.08 169.856 320.86 175.477C314.406 181.31 309.5 188.938 309.5 199.293L322.5 199.293C322.5 193.654 324.969 189.287 329.577 185.122C334.42 180.745 341.047 177.11 348.601 173.01C355.799 169.103 363.923 164.731 370.144 159.099C376.6 153.253 381.5 145.613 381.5 135.245L368.5 135.245ZM309.5 199.293C309.5 209.66 314.4 217.301 320.856 223.147C327.076 228.779 335.201 233.151 342.399 237.058C349.954 241.158 356.58 244.793 361.423 249.17C366.031 253.335 368.5 257.702 368.5 263.34L381.5 263.34C381.5 252.986 376.594 245.358 370.14 239.525C363.92 233.904 355.796 229.538 348.601 225.632C341.049 221.534 334.424 217.894 329.582 213.51C324.975 209.339 322.5 204.956 322.5 199.293L309.5 199.293ZM368.5 263.34C368.5 269.003 366.025 273.386 361.418 277.557C356.576 281.942 349.951 285.581 342.399 289.68C335.204 293.585 327.08 297.952 320.86 303.572C314.406 309.405 309.5 317.033 309.5 327.387L322.5 327.387C322.5 321.749 324.969 317.382 329.577 313.217C334.42 308.84 341.046 305.205 348.601 301.105C355.799 297.198 363.923 292.827 370.144 287.194C376.6 281.348 381.5 273.708 381.5 263.34L368.5 263.34ZM309.5 327.387C309.5 337.755 314.4 345.395 320.855 351.242C327.075 356.875 335.199 361.249 342.396 365.16C349.949 369.264 356.575 372.905 361.418 377.291C366.026 381.464 368.5 385.846 368.5 391.509L381.5 391.509C381.5 381.142 376.599 373.501 370.145 367.655C363.925 362.023 355.801 357.649 348.604 353.738C341.051 349.633 334.425 345.992 329.582 341.606C324.975 337.433 322.5 333.051 322.5 327.387L309.5 327.387ZM368.5 391.509C368.5 397.172 366.025 401.555 361.418 405.728C356.575 410.114 349.949 413.755 342.396 417.86C335.199 421.771 327.075 426.145 320.855 431.778C314.4 437.624 309.5 445.265 309.5 455.633L322.5 455.633C322.5 449.969 324.975 445.587 329.582 441.414C334.425 437.028 341.051 433.386 348.604 429.282C355.801 425.371 363.925 420.997 370.145 415.363C376.6 409.517 381.5 401.876 381.5 391.509L368.5 391.509ZM309.5 455.633C309.5 466 314.401 473.64 320.855 479.486C327.075 485.119 335.199 489.493 342.396 493.404C349.949 497.508 356.575 501.149 361.418 505.535C366.025 509.708 368.5 514.091 368.5 519.754L381.5 519.754C381.5 509.387 376.6 501.746 370.145 495.9C363.925 490.267 355.801 485.892 348.604 481.981C341.051 477.877 334.425 474.236 329.582 469.85C324.974 465.677 322.5 461.295 322.5 455.633L309.5 455.633ZM368.5 519.754C368.5 525.418 366.025 529.8 361.418 533.973C356.575 538.359 349.949 542.001 342.396 546.105C335.199 550.016 327.075 554.39 320.855 560.024C314.4 565.87 309.5 573.511 309.5 583.878L322.5 583.878C322.5 578.215 324.975 573.832 329.582 569.659C334.425 565.273 341.051 561.632 348.604 557.528C355.801 553.616 363.925 549.242 370.145 543.609C376.6 537.763 381.5 530.122 381.5 519.754L368.5 519.754ZM309.5 583.878C309.5 594.246 314.401 601.886 320.855 607.732C327.075 613.365 335.199 617.739 342.396 621.649C349.949 625.754 356.575 629.395 361.418 633.781C366.025 637.954 368.5 642.337 368.5 648L381.5 648C381.5 637.632 376.6 629.992 370.145 624.145C363.925 618.512 355.801 614.138 348.603 610.227C341.051 606.123 334.425 602.482 329.582 598.096C324.974 593.923 322.5 589.541 322.5 583.878L309.5 583.878Z" fill="#DAED47"/>
<path d="M316.5 7C316.5 3.41015 313.59 0.5 310 0.5C306.41 0.5 303.5 3.41015 303.5 7L316.5 7ZM303.5 7C303.5 12.6207 301.004 16.9944 296.302 21.1823C291.367 25.5772 284.616 29.225 276.937 33.3284C269.616 37.2403 261.367 41.6078 255.052 47.2321C248.504 53.0634 243.5 60.7126 243.5 71.1226L256.5 71.1226C256.5 65.5019 258.996 61.1282 263.698 56.9402C268.633 52.5454 275.384 48.8976 283.063 44.7941C290.384 40.8823 298.633 36.5148 304.948 30.8904C311.496 25.0592 316.5 17.4099 316.5 7L303.5 7ZM243.5 71.1226C243.5 81.5325 248.504 89.1818 255.052 95.013C261.367 100.637 269.616 105.005 276.937 108.917C284.616 113.02 291.367 116.668 296.302 121.063C301.004 125.251 303.5 129.624 303.5 135.245L316.5 135.245C316.5 124.835 311.496 117.186 304.948 111.355C298.633 105.73 290.384 101.363 283.063 97.451C275.384 93.3475 268.633 89.6997 263.698 85.3049C258.996 81.117 256.5 76.7433 256.5 71.1226L243.5 71.1226ZM303.5 135.245C303.5 140.866 301.004 145.239 296.303 149.426C291.369 153.819 284.618 157.465 276.939 161.563C269.62 165.469 261.372 169.829 255.057 175.441C248.51 181.259 243.5 188.895 243.5 199.293L256.5 199.293C256.5 193.697 258.99 189.338 263.693 185.158C268.628 180.772 275.38 177.131 283.061 173.031C290.382 169.123 298.631 164.759 304.947 159.135C311.496 153.305 316.5 145.655 316.5 135.245L303.5 135.245ZM243.5 199.293C243.5 209.703 248.504 217.352 255.053 223.183C261.369 228.807 269.617 233.172 276.939 237.08C284.62 241.179 291.372 244.82 296.307 249.206C301.01 253.386 303.5 257.744 303.5 263.34L316.5 263.34C316.5 252.943 311.49 245.307 304.943 239.489C298.628 233.877 290.38 229.517 283.061 225.611C275.383 221.513 268.631 217.867 263.697 213.474C258.996 209.287 256.5 204.914 256.5 199.293L243.5 199.293ZM303.5 263.34C303.5 268.961 301.004 273.335 296.303 277.521C291.369 281.914 284.617 285.56 276.939 289.658C269.62 293.565 261.372 297.924 255.057 303.536C248.51 309.354 243.5 316.99 243.5 327.387L256.5 327.387C256.5 321.792 258.99 317.433 263.693 313.253C268.628 308.867 275.38 305.226 283.061 301.127C290.383 297.219 298.631 292.854 304.947 287.23C311.496 281.4 316.5 273.75 316.5 263.34L303.5 263.34ZM243.5 327.387C243.5 337.797 248.504 345.447 255.052 351.278C261.367 356.902 269.616 361.27 276.937 365.182C284.616 369.285 291.367 372.933 296.302 377.327C301.005 381.515 303.5 385.889 303.5 391.509L316.5 391.509C316.5 381.099 311.495 373.45 304.948 367.619C298.633 361.995 290.384 357.628 283.063 353.716C275.384 349.613 268.633 345.965 263.698 341.57C258.996 337.382 256.5 333.008 256.5 327.387L243.5 327.387ZM303.5 391.509C303.5 397.13 301.004 401.504 296.302 405.692C291.367 410.086 284.616 413.734 276.937 417.838C269.616 421.75 261.367 426.117 255.052 431.742C248.504 437.573 243.5 445.223 243.5 455.633L256.5 455.633C256.5 450.012 258.996 445.638 263.698 441.45C268.633 437.055 275.384 433.407 283.063 429.304C290.384 425.392 298.633 421.024 304.948 415.4C311.496 409.568 316.5 401.919 316.5 391.509L303.5 391.509ZM243.5 455.633C243.5 466.042 248.505 473.691 255.052 479.522C261.367 485.146 269.616 489.514 276.937 493.426C284.616 497.529 291.367 501.177 296.302 505.572C301.004 509.76 303.5 514.133 303.5 519.754L316.5 519.754C316.5 509.344 311.496 501.695 304.948 495.864C298.633 490.239 290.384 485.872 283.063 481.96C275.384 477.856 268.633 474.209 263.698 469.814C258.995 465.626 256.5 461.253 256.5 455.633L243.5 455.633ZM303.5 519.754C303.5 525.375 301.004 529.749 296.302 533.937C291.367 538.332 284.616 541.98 276.937 546.084C269.616 549.995 261.367 554.363 255.052 559.988C248.504 565.819 243.5 573.468 243.5 583.878L256.5 583.878C256.5 578.257 258.996 573.884 263.698 569.696C268.633 565.301 275.384 561.653 283.063 557.549C290.384 553.637 298.633 549.27 304.948 543.645C311.496 537.814 316.5 530.164 316.5 519.754L303.5 519.754ZM243.5 583.878C243.5 594.288 248.505 601.937 255.052 607.768C261.367 613.392 269.616 617.759 276.937 621.671C284.616 625.775 291.367 629.422 296.302 633.817C301.004 638.005 303.5 642.379 303.5 648L316.5 648C316.5 637.59 311.496 629.941 304.948 624.109C298.633 618.485 290.384 614.117 283.063 610.205C275.384 606.102 268.633 602.454 263.698 598.06C258.995 593.872 256.5 589.498 256.5 583.878L243.5 583.878Z" fill="#DAED47"/>
<path d="M251.5 7C251.5 3.41015 248.59 0.5 245 0.5C241.41 0.5 238.5 3.41015 238.5 7L251.5 7ZM238.5 7C238.5 12.6207 236.004 16.9944 231.302 21.1823C226.367 25.5772 219.616 29.225 211.937 33.3284C204.616 37.2403 196.367 41.6078 190.052 47.2321C183.504 53.0634 178.5 60.7126 178.5 71.1226L191.5 71.1226C191.5 65.5019 193.996 61.1282 198.698 56.9402C203.633 52.5454 210.384 48.8976 218.063 44.7941C225.384 40.8823 233.633 36.5148 239.948 30.8904C246.496 25.0592 251.5 17.4099 251.5 7L238.5 7ZM178.5 71.1226C178.5 81.5325 183.504 89.1818 190.052 95.013C196.367 100.637 204.616 105.005 211.937 108.917C219.616 113.02 226.367 116.668 231.302 121.063C236.004 125.251 238.5 129.624 238.5 135.245L251.5 135.245C251.5 124.835 246.496 117.186 239.948 111.355C233.633 105.73 225.384 101.363 218.063 97.451C210.384 93.3475 203.633 89.6997 198.698 85.3049C193.996 81.117 191.5 76.7433 191.5 71.1226L178.5 71.1226ZM238.5 135.245C238.5 140.866 236.004 145.239 231.303 149.426C226.369 153.819 219.618 157.465 211.939 161.563C204.62 165.469 196.372 169.829 190.057 175.441C183.51 181.259 178.5 188.895 178.5 199.293L191.5 199.293C191.5 193.697 193.99 189.338 198.693 185.158C203.628 180.772 210.38 177.131 218.061 173.031C225.382 169.123 233.631 164.759 239.947 159.135C246.496 153.305 251.5 145.655 251.5 135.245L238.5 135.245ZM178.5 199.293C178.5 209.703 183.504 217.352 190.053 223.183C196.369 228.807 204.617 233.172 211.939 237.08C219.62 241.179 226.372 244.82 231.307 249.206C236.01 253.386 238.5 257.744 238.5 263.34L251.5 263.34C251.5 252.943 246.49 245.307 239.943 239.489C233.628 233.877 225.38 229.517 218.061 225.611C210.383 221.513 203.631 217.867 198.697 213.474C193.996 209.287 191.5 204.914 191.5 199.293L178.5 199.293ZM238.5 263.34C238.5 268.961 236.004 273.335 231.303 277.521C226.369 281.914 219.617 285.56 211.939 289.658C204.62 293.565 196.372 297.924 190.057 303.536C183.51 309.354 178.5 316.99 178.5 327.387L191.5 327.387C191.5 321.792 193.99 317.433 198.693 313.253C203.628 308.867 210.38 305.226 218.061 301.127C225.383 297.219 233.631 292.854 239.947 287.23C246.496 281.4 251.5 273.75 251.5 263.34L238.5 263.34ZM178.5 327.387C178.5 337.797 183.504 345.447 190.052 351.278C196.367 356.902 204.616 361.27 211.937 365.182C219.616 369.285 226.367 372.933 231.302 377.327C236.005 381.515 238.5 385.889 238.5 391.509L251.5 391.509C251.5 381.099 246.495 373.45 239.948 367.619C233.633 361.995 225.384 357.628 218.063 353.716C210.384 349.613 203.633 345.965 198.698 341.57C193.996 337.382 191.5 333.008 191.5 327.387L178.5 327.387ZM238.5 391.509C238.5 397.13 236.004 401.504 231.302 405.692C226.367 410.086 219.616 413.734 211.937 417.838C204.616 421.75 196.367 426.117 190.052 431.742C183.504 437.573 178.5 445.223 178.5 455.633L191.5 455.633C191.5 450.012 193.996 445.638 198.698 441.45C203.633 437.055 210.384 433.407 218.063 429.304C225.384 425.392 233.633 421.024 239.948 415.4C246.496 409.568 251.5 401.919 251.5 391.509L238.5 391.509ZM178.5 455.633C178.5 466.042 183.505 473.691 190.052 479.522C196.367 485.146 204.616 489.514 211.937 493.426C219.616 497.529 226.367 501.177 231.302 505.572C236.004 509.76 238.5 514.133 238.5 519.754L251.5 519.754C251.5 509.344 246.496 501.695 239.948 495.864C233.633 490.239 225.384 485.872 218.063 481.96C210.384 477.856 203.633 474.209 198.698 469.814C193.995 465.626 191.5 461.253 191.5 455.633L178.5 455.633ZM238.5 519.754C238.5 525.375 236.004 529.749 231.302 533.937C226.367 538.332 219.616 541.98 211.937 546.084C204.616 549.995 196.367 554.363 190.052 559.988C183.504 565.819 178.5 573.468 178.5 583.878L191.5 583.878C191.5 578.257 193.996 573.884 198.698 569.696C203.633 565.301 210.384 561.653 218.063 557.549C225.384 553.637 233.633 549.27 239.948 543.645C246.496 537.814 251.5 530.164 251.5 519.754L238.5 519.754ZM178.5 583.878C178.5 594.288 183.505 601.937 190.052 607.768C196.367 613.392 204.616 617.759 211.937 621.671C219.616 625.775 226.367 629.422 231.302 633.817C236.004 638.005 238.5 642.379 238.5 648L251.5 648C251.5 637.59 246.496 629.941 239.948 624.109C233.633 618.485 225.384 614.117 218.063 610.205C210.384 606.102 203.633 602.454 198.698 598.06C193.995 593.872 191.5 589.498 191.5 583.878L178.5 583.878Z" fill="#DAED47"/>
<path d="M191.5 7C191.5 3.41015 188.59 0.5 185 0.5C181.41 0.5 178.5 3.41015 178.5 7L191.5 7ZM178.5 7C178.5 12.6632 176.025 17.0456 171.418 21.2186C166.575 25.6046 159.949 29.2458 152.396 33.3501C145.199 37.2611 137.075 41.6352 130.855 47.2684C124.4 53.1145 119.5 60.7551 119.5 71.1226L132.5 71.1226C132.5 65.4594 134.975 61.077 139.582 56.9039C144.425 52.518 151.051 48.8768 158.604 44.7725C165.801 40.8615 173.925 36.4873 180.145 30.8542C186.6 25.008 191.5 17.3675 191.5 7L178.5 7ZM119.5 71.1226C119.5 81.49 124.4 89.1306 130.855 94.9767C137.075 100.61 145.199 104.984 152.396 108.895C159.949 112.999 166.575 116.641 171.418 121.027C176.025 125.2 178.5 129.582 178.5 135.245L191.5 135.245C191.5 124.878 186.6 117.237 180.145 111.391C173.925 105.758 165.801 101.384 158.604 97.4726C151.051 93.3683 144.425 89.7271 139.582 85.3412C134.975 81.1682 132.5 76.7857 132.5 71.1226L119.5 71.1226ZM178.5 135.245C178.5 140.908 176.025 145.291 171.418 149.462C166.577 153.846 159.951 157.485 152.399 161.584C145.204 165.49 137.08 169.856 130.86 175.477C124.406 181.31 119.5 188.938 119.5 199.293L132.5 199.293C132.5 193.654 134.969 189.287 139.577 185.122C144.42 180.745 151.047 177.11 158.601 173.01C165.799 169.103 173.923 164.731 180.144 159.099C186.6 153.253 191.5 145.613 191.5 135.245L178.5 135.245ZM119.5 199.293C119.5 209.66 124.4 217.301 130.856 223.147C137.076 228.779 145.201 233.151 152.399 237.058C159.954 241.158 166.58 244.793 171.423 249.17C176.031 253.335 178.5 257.702 178.5 263.34L191.5 263.34C191.5 252.986 186.594 245.358 180.14 239.525C173.92 233.904 165.796 229.538 158.601 225.632C151.049 221.534 144.424 217.894 139.582 213.51C134.975 209.339 132.5 204.956 132.5 199.293L119.5 199.293ZM178.5 263.34C178.5 269.003 176.025 273.386 171.418 277.557C166.576 281.942 159.951 285.581 152.399 289.68C145.204 293.585 137.08 297.952 130.86 303.572C124.406 309.405 119.5 317.033 119.5 327.387L132.5 327.387C132.5 321.749 134.969 317.382 139.577 313.217C144.42 308.84 151.046 305.205 158.601 301.105C165.799 297.198 173.923 292.827 180.144 287.194C186.6 281.348 191.5 273.708 191.5 263.34L178.5 263.34ZM119.5 327.387C119.5 337.755 124.4 345.395 130.855 351.242C137.075 356.875 145.199 361.249 152.396 365.16C159.949 369.264 166.575 372.905 171.418 377.291C176.026 381.464 178.5 385.846 178.5 391.509L191.5 391.509C191.5 381.142 186.599 373.501 180.145 367.655C173.925 362.023 165.801 357.649 158.604 353.738C151.051 349.633 144.425 345.992 139.582 341.606C134.975 337.433 132.5 333.051 132.5 327.387L119.5 327.387ZM178.5 391.509C178.5 397.172 176.025 401.555 171.418 405.728C166.575 410.114 159.949 413.755 152.396 417.86C145.199 421.771 137.075 426.145 130.855 431.778C124.4 437.624 119.5 445.265 119.5 455.633L132.5 455.633C132.5 449.969 134.975 445.587 139.582 441.414C144.425 437.028 151.051 433.386 158.604 429.282C165.801 425.371 173.925 420.997 180.145 415.363C186.6 409.517 191.5 401.876 191.5 391.509L178.5 391.509ZM119.5 455.633C119.5 466 124.401 473.64 130.855 479.486C137.075 485.119 145.199 489.493 152.396 493.404C159.949 497.508 166.575 501.149 171.418 505.535C176.025 509.708 178.5 514.091 178.5 519.754L191.5 519.754C191.5 509.387 186.6 501.746 180.145 495.9C173.925 490.267 165.801 485.892 158.604 481.981C151.051 477.877 144.425 474.236 139.582 469.85C134.974 465.677 132.5 461.295 132.5 455.633L119.5 455.633ZM178.5 519.754C178.5 525.418 176.025 529.8 171.418 533.973C166.575 538.359 159.949 542.001 152.396 546.105C145.199 550.016 137.075 554.39 130.855 560.024C124.4 565.87 119.5 573.511 119.5 583.878L132.5 583.878C132.5 578.215 134.975 573.832 139.582 569.659C144.425 565.273 151.051 561.632 158.604 557.528C165.801 553.616 173.925 549.242 180.145 543.609C186.6 537.763 191.5 530.122 191.5 519.754L178.5 519.754ZM119.5 583.878C119.5 594.246 124.401 601.886 130.855 607.732C137.075 613.365 145.199 617.739 152.396 621.649C159.949 625.754 166.575 629.395 171.418 633.781C176.025 637.954 178.5 642.337 178.5 648L191.5 648C191.5 637.632 186.6 629.992 180.145 624.145C173.925 618.512 165.801 614.138 158.603 610.227C151.051 606.123 144.425 602.482 139.582 598.096C134.974 593.923 132.5 589.541 132.5 583.878L119.5 583.878Z" fill="#DAED47"/>
<path d="M132.5 7C132.5 3.41015 129.59 0.5 126 0.5C122.41 0.5 119.5 3.41015 119.5 7L132.5 7ZM119.5 7C119.5 12.6207 117.004 16.9944 112.302 21.1823C107.367 25.5772 100.616 29.225 92.9366 33.3284C85.6159 37.2403 77.3673 41.6078 71.052 47.2321C64.5044 53.0634 59.5 60.7126 59.5 71.1226L72.5 71.1226C72.5 65.5019 74.9956 61.1282 79.698 56.9402C84.6327 52.5454 91.3841 48.8976 99.0634 44.7941C106.384 40.8823 114.633 36.5148 120.948 30.8904C127.496 25.0592 132.5 17.4099 132.5 7L119.5 7ZM59.5 71.1226C59.5 81.5325 64.5044 89.1818 71.052 95.013C77.3673 100.637 85.6159 105.005 92.9366 108.917C100.616 113.02 107.367 116.668 112.302 121.063C117.004 125.251 119.5 129.624 119.5 135.245L132.5 135.245C132.5 124.835 127.496 117.186 120.948 111.355C114.633 105.73 106.384 101.363 99.0634 97.451C91.3841 93.3475 84.6327 89.6997 79.698 85.3049C74.9956 81.117 72.5 76.7433 72.5 71.1226L59.5 71.1226ZM119.5 135.245C119.5 140.866 117.004 145.239 112.303 149.426C107.369 153.819 100.618 157.465 92.9394 161.563C85.6201 165.469 77.3718 169.829 71.0571 175.441C64.5104 181.259 59.5 188.895 59.5 199.293L72.5 199.293C72.5 193.697 74.9897 189.338 79.6929 185.158C84.6282 180.772 91.3799 177.131 99.0606 173.031C106.382 169.123 114.631 164.759 120.947 159.135C127.496 153.305 132.5 145.655 132.5 135.245L119.5 135.245ZM59.5 199.293C59.5 209.703 64.5043 217.352 71.0525 223.183C77.3686 228.807 85.6175 233.172 92.9394 237.08C100.62 241.179 107.372 244.82 112.307 249.206C117.01 253.386 119.5 257.744 119.5 263.34L132.5 263.34C132.5 252.943 127.49 245.307 120.943 239.489C114.628 233.877 106.38 229.517 99.0606 225.611C91.3825 221.513 84.6314 217.867 79.6975 213.474C74.9957 209.287 72.5 204.914 72.5 199.293L59.5 199.293ZM119.5 263.34C119.5 268.961 117.004 273.335 112.303 277.521C107.369 281.914 100.617 285.56 92.9394 289.658C85.6201 293.565 77.3719 297.924 71.0572 303.536C64.5104 309.354 59.5 316.99 59.5 327.387L72.5 327.387C72.5 321.792 74.9896 317.433 79.6928 313.253C84.6281 308.867 91.3799 305.226 99.0606 301.127C106.383 297.219 114.631 292.854 120.947 287.23C127.496 281.4 132.5 273.75 132.5 263.34L119.5 263.34ZM59.5 327.387C59.5 337.797 64.5044 345.447 71.052 351.278C77.3673 356.902 85.6159 361.27 92.9367 365.182C100.616 369.285 107.367 372.933 112.302 377.327C117.005 381.515 119.5 385.889 119.5 391.509L132.5 391.509C132.5 381.099 127.495 373.45 120.948 367.619C114.633 361.995 106.384 357.628 99.0633 353.716C91.3841 349.613 84.6327 345.965 79.698 341.57C74.9956 337.382 72.5 333.008 72.5 327.387L59.5 327.387ZM119.5 391.509C119.5 397.13 117.004 401.504 112.302 405.692C107.367 410.086 100.616 413.734 92.9366 417.838C85.6158 421.75 77.3672 426.117 71.052 431.742C64.5044 437.573 59.5 445.223 59.5 455.633L72.5 455.633C72.5 450.012 74.9956 445.638 79.698 441.45C84.6328 437.055 91.3842 433.407 99.0634 429.304C106.384 425.392 114.633 421.024 120.948 415.4C127.496 409.568 132.5 401.919 132.5 391.509L119.5 391.509ZM59.5 455.633C59.5 466.042 64.5046 473.691 71.0521 479.522C77.3674 485.146 85.616 489.514 92.9366 493.426C100.616 497.529 107.367 501.177 112.302 505.572C117.004 509.76 119.5 514.133 119.5 519.754L132.5 519.754C132.5 509.344 127.496 501.695 120.948 495.864C114.633 490.239 106.384 485.872 99.0633 481.96C91.384 477.856 84.6326 474.209 79.6979 469.814C74.9954 465.626 72.5 461.253 72.5 455.633L59.5 455.633ZM119.5 519.754C119.5 525.375 117.004 529.749 112.302 533.937C107.367 538.332 100.616 541.98 92.9366 546.084C85.6158 549.995 77.3672 554.363 71.052 559.988C64.5044 565.819 59.5 573.468 59.5 583.878L72.5 583.878C72.5 578.257 74.9956 573.884 79.698 569.696C84.6328 565.301 91.3841 561.653 99.0634 557.549C106.384 553.637 114.633 549.27 120.948 543.645C127.496 537.814 132.5 530.164 132.5 519.754L119.5 519.754ZM59.5 583.878C59.5 594.288 64.5046 601.937 71.0521 607.768C77.3674 613.392 85.616 617.759 92.9366 621.671C100.616 625.775 107.367 629.422 112.302 633.817C117.004 638.005 119.5 642.379 119.5 648L132.5 648C132.5 637.59 127.496 629.941 120.948 624.109C114.633 618.485 106.384 614.117 99.0633 610.205C91.384 606.102 84.6326 602.454 79.6979 598.06C74.9954 593.872 72.5 589.498 72.5 583.878L59.5 583.878Z" fill="#DAED47"/>
</svg>
