<svg width="106" height="106" viewBox="0 0 106 106" fill="none" xmlns="http://www.w3.org/2000/svg">
<path fill-rule="evenodd" clip-rule="evenodd" d="M53 106C82.271 106 106 82.2711 106 53C106 23.7289 82.271 0 53 0C23.729 0 0 23.7289 0 53C0 82.2711 23.729 106 53 106ZM55.635 18.5959C57.4138 17.6511 58.625 15.7795 58.625 13.625C58.625 10.5184 56.1067 8 53 8C49.8933 8 47.375 10.5184 47.375 13.625C47.375 15.7795 48.5862 17.6511 50.365 18.5959L50.6648 26.986C49.5293 27.7421 48.7812 29.0337 48.7812 30.5C48.7812 32.0742 49.6433 33.447 50.9214 34.1719L51.197 41.8937C50.9719 41.93 50.7488 41.9729 50.5283 42.0224L45.9561 29.364C47.27 27.8056 47.6882 25.5851 46.8513 23.5733C45.6582 20.7049 42.3657 19.347 39.4973 20.5401C36.6289 21.7333 35.271 25.0258 36.4641 27.8941C37.301 29.9059 39.1707 31.1747 41.2024 31.3414L46.9573 43.509C46.7751 43.6251 46.5967 43.7463 46.4221 43.8725L41.1562 38.2166C41.5471 36.8004 41.186 35.2201 40.073 34.107C39.0361 33.0702 37.594 32.6859 36.2566 32.954L30.5359 26.8095C31.1255 24.8836 30.6587 22.7037 29.1353 21.1802C26.9385 18.9835 23.377 18.9835 21.1802 21.1802C18.9836 23.3769 18.9836 26.9384 21.1802 29.1351C22.7036 30.6586 24.8835 31.1255 26.8093 30.5359L32.9539 36.2565C32.6855 37.594 33.0698 39.0363 34.1067 40.0732C35.22 41.1863 36.8003 41.5474 38.2166 41.1564L43.8723 46.4221C43.7397 46.6059 43.6125 46.7939 43.4907 46.9858L31.3062 41.2678C31.1333 39.2366 29.8589 37.3708 27.8445 36.54C24.9727 35.3555 21.6841 36.7234 20.4998 39.5953C19.3152 42.4672 20.6831 45.7556 23.5549 46.9401C25.5693 47.7709 27.7886 47.3461 29.343 46.0273L42.0151 50.5614C41.9688 50.7712 41.9282 50.9831 41.8938 51.1971L34.1719 50.9213C33.447 49.6434 32.0742 48.7812 30.5 48.7812C29.0337 48.7812 27.7422 49.5293 26.9861 50.6647L18.5959 50.365C17.6511 48.5863 15.7795 47.375 13.625 47.375C10.5183 47.375 8 49.8934 8 53C8 56.1066 10.5183 58.625 13.625 58.625C15.7795 58.625 17.6511 57.4137 18.5959 55.635L26.9861 55.3353C27.7422 56.4707 29.0337 57.2188 30.5 57.2188C32.0742 57.2188 33.447 56.3566 34.1719 55.0787L41.8938 54.8029C41.9299 55.0282 41.9729 55.2512 42.0225 55.4717L29.3643 60.0439C27.8059 58.7299 25.5854 58.3118 23.5735 59.1487C20.7053 60.3418 19.3472 63.6343 20.5405 66.5027C21.7336 69.371 25.0261 70.7289 27.8945 69.5358C29.9062 68.6989 31.175 66.8293 31.3418 64.7976L43.509 59.0428C43.6252 59.2249 43.7463 59.4033 43.8726 59.5779L38.2168 64.8436C36.8005 64.4526 35.2202 64.8136 34.1072 65.9268C33.0703 66.9636 32.6858 68.4059 32.9541 69.7433L26.8096 75.4641C24.8835 74.8744 22.7036 75.3413 21.1802 76.8648C18.9834 79.0615 18.9834 82.623 21.1802 84.8198C23.3767 87.0164 26.9382 87.0164 29.135 84.8198C30.6584 83.2963 31.1255 81.1165 30.5359 79.1907L36.2568 73.0459C37.5942 73.3141 39.0364 72.9298 40.0732 71.8929C41.1863 70.7798 41.5474 69.1995 41.1565 67.7833L46.4221 62.1276C46.5356 62.2095 46.6506 62.2893 46.7671 62.367C46.8394 62.4153 46.9124 62.4627 46.9858 62.5093L41.2678 74.694C39.2366 74.8668 37.3708 76.1413 36.54 78.1556C35.3555 81.0275 36.7234 84.3159 39.5955 85.5004C42.4673 86.6849 45.7556 85.317 46.9402 82.4451C47.771 80.4308 47.3462 78.2116 46.0273 76.6571L50.5615 63.985C50.7712 64.0314 50.9832 64.0718 51.197 64.1063L50.9214 71.8281C49.6433 72.553 48.7812 73.9258 48.7812 75.5C48.7812 76.9663 49.5293 78.2579 50.6648 79.014L50.365 87.4041C48.5862 88.3489 47.375 90.2205 47.375 92.375C47.375 95.4816 49.8933 98 53 98C56.1067 98 58.625 95.4816 58.625 92.375C58.625 90.2205 57.4138 88.3489 55.635 87.4041L55.3352 79.014C56.4707 78.2579 57.2188 76.9663 57.2188 75.5C57.2188 73.9258 56.3567 72.553 55.0786 71.8281L54.803 64.1063C54.9302 64.0858 55.0564 64.0633 55.1819 64.0386C55.2791 64.0195 55.3757 63.9991 55.4719 63.9776L60.0442 76.6359C58.73 78.1943 58.3118 80.4149 59.1487 82.4267C60.342 85.295 63.6345 86.653 66.5027 85.4598C69.3711 84.2667 70.729 80.9742 69.5359 78.1058C68.699 76.0941 66.8296 74.8253 64.7979 74.6586L59.043 62.4909C59.2249 62.3748 59.4033 62.2536 59.5779 62.1276L64.8438 67.7834C64.4529 69.1996 64.814 70.7799 65.927 71.893C66.9639 72.9298 68.406 73.3141 69.7434 73.046L75.4641 79.1905C74.8745 81.1164 75.3413 83.2963 76.8647 84.8198C79.0615 87.0165 82.623 87.0165 84.8198 84.8198C87.0164 82.6231 87.0164 79.0616 84.8198 76.8649C83.2964 75.3414 81.1165 74.8745 79.1907 75.4641L73.0461 69.7435C73.3145 68.406 72.9302 66.9637 71.8931 65.9268C70.78 64.8137 69.1997 64.4526 67.7834 64.8436L62.1277 59.5779C62.2095 59.4644 62.2893 59.3493 62.3672 59.2327C62.4153 59.1604 62.4626 59.0876 62.5093 59.0141L74.6943 64.7324C74.8672 66.7635 76.1416 68.6292 78.1558 69.46C81.0278 70.6445 84.3162 69.2766 85.5007 66.4047C86.6851 63.5328 85.3171 60.2444 82.4453 59.0599C80.4309 58.2291 78.2117 58.6539 76.6572 59.9727L63.9851 55.4385C64.0312 55.2288 64.0718 55.0168 64.1062 54.8029L71.8281 55.0787C72.553 56.3566 73.9258 57.2188 75.5 57.2188C76.9663 57.2188 78.2578 56.4707 79.0139 55.3353L87.4041 55.635C88.3489 57.4137 90.2205 58.625 92.375 58.625C95.4817 58.625 98 56.1066 98 53C98 49.8934 95.4817 47.375 92.375 47.375C90.2205 47.375 88.3489 48.5863 87.4041 50.365L79.0139 50.6647C78.2578 49.5293 76.9663 48.7812 75.5 48.7812C73.9258 48.7812 72.553 49.6434 71.8281 50.9213L64.1062 51.1971C64.0701 50.9719 64.0271 50.7488 63.9775 50.5283L76.6362 45.9559C78.1946 47.27 80.415 47.6881 82.427 46.8513C85.2952 45.6581 86.6533 42.3656 85.46 39.4973C84.2668 36.6289 80.9744 35.2709 78.106 36.4641C76.0942 37.301 74.8254 39.1706 74.6587 41.2023L62.491 46.9572C62.375 46.7752 62.2537 46.5968 62.1274 46.4221L67.7832 41.1564C69.1995 41.5474 70.7798 41.1864 71.8928 40.0732C72.9297 39.0364 73.3142 37.5941 73.0459 36.2567L79.1904 30.5359C81.1165 31.1256 83.2964 30.6587 84.8198 29.1352C87.0166 26.9385 87.0166 23.377 84.8198 21.1802C82.6233 18.9836 79.0618 18.9836 76.865 21.1802C75.3416 22.7037 74.8745 24.8835 75.4641 26.8093L69.7432 32.9541C68.4058 32.6859 66.9636 33.0702 65.9268 34.107C64.8137 35.2202 64.4526 36.8005 64.8435 38.2167L59.5779 43.8724C59.394 43.7397 59.2061 43.6124 59.0142 43.4908L64.7322 31.306C66.7634 31.1332 68.6294 29.8588 69.4602 27.8444C70.6445 24.9725 69.2766 21.6841 66.4048 20.4996C63.533 19.3151 60.2444 20.683 59.0601 23.5549C58.2292 25.5692 58.6541 27.7883 59.9727 29.3428L55.4385 42.015C55.2288 41.9687 55.0168 41.9282 54.803 41.8937L55.0786 34.1719C56.3567 33.447 57.2188 32.0742 57.2188 30.5C57.2188 29.0337 56.4707 27.7421 55.3352 26.986L55.635 18.5959ZM53 62C57.9705 62 62 57.9706 62 53C62 48.0294 57.9705 44 53 44C48.0295 44 44 48.0294 44 53C44 57.9706 48.0295 62 53 62Z" fill="black"/>
</svg>
